<svg data-v-1084b650="" xmlns="http://www.w3.org/2000/svg" viewBox="0 0 300 300"><!----> <linearGradient data-v-1084b650="" gradientTransform="rotate(25)" id="09d4bc5e-9170-4f45-2140-5ae00c982425" x1="0%" y1="0%" x2="100%" y2="0%"><stop data-v-1084b650="" offset="0%" style="stop-color: rgb(0, 118, 221); stop-opacity: 1;"></stop> <stop data-v-1084b650="" offset="100%" style="stop-color: rgb(0, 205, 233); stop-opacity: 1;"></stop></linearGradient> <rect data-v-1084b650="" fill="url(#09d4bc5e-9170-4f45-2140-5ae00c982425)" x="0" y="0" width="300px" height="300px" class="logo-background-square"></rect> <!----> <!----> <g data-v-1084b650="" id="6577979b-a906-9054-b79d-484c596a790a" fill="#ffffff" stroke="none" transform="matrix(0.7999999999999998,0,0,0.7999999999999998,29.51999206542972,31.31997985839847)"><svg xmlns="http://www.w3.org/2000/svg" viewBox="0 0 100 100"><path d="M47.7 39.9c.2.8-1.7 3.2-2.2 4.4-.5 1.3-.6 3.9-1.9 5.2-.7.8-2.8 1.9-2.9 2.7-.7 12.1.1 42.3.1 42.3H30.2s2.2-31.2 2.5-43.1c0-1.1-1.5-1-2.3-4.5-.3-1 0-3.3-.2-4.4-.3-1.3-1.5-3.6-1.9-4.9-.2-.7-.8-2.6-.2-3 .5-.3 1-.1 1.3.4.5.7 1.3 2.7 1.7 3.9.2.5 1.5 2.1 1.5 1.6.2-2.5-1-6.6-1.1-8.9 0-.5 0-1.4.8-1.7.5-.2 1.1.1 1.2.6.5 2.1 1.1 6.1 1.6 8.7 0 .1.5.1.5-.1.3-1.7-.2-7.7 0-9.6 0-.4.4-1.1 1.3-1.1.5 0 1 .6 1.2 1.6.3 2.2.2 6.6.3 8.9 0 .1.4.2.5.1.6-2 .8-5.8 1-7.8.1-.6.7-1.1 1.1-1 .4 0 1.2.2 1.3 1.2.4 2.9-.7 8.3-.7 11 0 .5.2 1.7.7 1.7.5 0 1.1-2.5 1.7-3.5.4-.7 1.5-1.4 2.4-1.4.4-.2 1.1-.1 1.3.7zM8.5 56.2c-.3.7 1 3.1 1.3 4.2.3 1.2 0 3.5.9 4.8.5.8 2.2 2.1 2.1 2.8-1 10.8-4.7 26.5-4.7 26.5h9.1s1.3-15.6 2.7-26.1c.1-1 1.4-.7 2.6-3.6.4-.9.4-3 .8-3.8.4-1.1 1.8-3 2.3-4.1.3-.6 1-2.2.6-2.6-.4-.3-.9-.2-1.2.1-.5.5-1.4 2.2-2 3.2-.2.4-1.5 1.6-1.5 1.2.2-2.2 1.8-5.7 2.2-7.7.1-.4.2-1.3-.5-1.6-.4-.2-1 0-1.2.4-.7 1.8-1.8 5.3-2.5 7.5 0 .1-.4 0-.4-.1 0-1.6 1.3-6.8 1.3-8.5 0-.4-.2-1.1-.9-1.2-.4-.1-1 .4-1.2 1.3-.6 1.9-1.1 5.8-1.5 7.8 0 .1-.4.1-.4 0-.2-1.9.1-5.3.2-7.1 0-.6-.5-1-.8-1.1-.4 0-1.1.1-1.3.9-.7 2.5-.5 7.4-1 9.8-.1.4-.4 1.5-.8 1.4-.5-.1-.6-2.4-1-3.3-.2-.6-1.1-1.4-1.8-1.6-.4-.2-1.1-.2-1.4.5zM73 30.9c.3.9-2.1 4.1-2.7 5.4-.6 1.5-1.2 4.8-2.6 6.5-1.2 1.4-2.8 1.7-2.9 2.5-.8 14 .2 49.2.2 49.2H52.3s2.7-36.3 3-50.1c0-1.3-1.8-1.2-2.8-5.2-.3-1.2 0-3.9-.2-5.1-.3-1.6-1.5-4.2-2-5.7-.3-.7-1.3-2.6-.5-3.4.4-.5 1.2-.2 1.6.3.6.8 1.4 3.1 2.1 4.4.2.3.7 1.3 1.2 1.8.4.4.7.4.8.1.2-2.9-1.3-7.7-1.4-10.4 0-.6-.2-1.5.9-1.8.6-.2 1.3 0 1.5.7.6 2.5 1.3 7.1 1.9 10.1 0 .1.6.1.6-.1.4-2-.1-9 .2-11.1.1-.5.3-1.4 1.3-1.4.8 0 1.3.7 1.4 1.9.3 2.6.3 7.7.4 10.4 0 .1.5.2.6.1.7-2.3 1-6.8 1.2-9.1.1-.7.9-1.2 1.3-1.2.5 0 1.4.3 1.6 1.4.4 3.4-.9 9.6-.8 12.8 0 .5.3 2.1.8 2 .4-.1 1.2-2.9 2-4.1.5-.7 1.5-1.7 2.5-1.8.3-.1 1.3-.1 1.5.9z"></path><path d="M68.9 49.1c-.1.7 1.9 2.9 2.5 3.8.6 1.1 1.4 3.5 2.5 4.7 1 .9 2.2 1 2.3 1.6 2.1 10.6 6.1 35.3 6.1 35.3h9.6S84.7 68 83 57.6c-.2-1 1.1-1.1 1.4-4.2.1-.9-.5-2.9-.4-3.9.1-1.2.6-3.3.8-4.5.1-.6.6-2.1 0-2.7-.4-.3-.9-.1-1.1.4-.4.6-.6 2.5-1 3.5-.1.3-.3 1.1-.6 1.5-.2.3-.5.4-.5.2-.5-2.1.1-6-.1-8 0-.4 0-1.1-.8-1.3-.4-.1-.9.1-1 .7-.2 1.9-.1 5.5-.2 7.8 0 .1-.4.1-.4 0-.5-1.5-.9-6.8-1.4-8.4-.1-.3-.3-1-1.1-.9-.5.1-.8.7-.8 1.6 0 2 .7 5.8.9 7.9 0 .1-.3.2-.4.1-.7-1.7-1.4-5.1-1.9-6.8-.1-.5-.7-.8-1.1-.8-.3.1-1 .4-1 1.2.1 2.6 1.7 7.2 2 9.6 0 .4 0 1.6-.3 1.6-.3-.1-1.2-2.1-1.9-2.9-.4-.5-1.2-1.1-2-1.1-.4.1-1.1.2-1.2.9zM21.6 23.7c-.9-1.5-2.7-2.1-4.3-1.4-1.3.6-2 1.9-2 3.2-1-.9-2.4-1.2-3.7-.6-1.6.7-2.4 2.5-1.8 4.2 0 .1.1.2.1.3 1.7 3.8 7.1 3.4 9.6 5.3.2-3.1 4-7 2.3-10.7-.1-.1-.1-.2-.2-.3zM44.3 8.5c-.6-1.7-2.3-2.7-4.1-2.3-1.4.3-2.5 1.5-2.7 2.8-.8-1.1-2.2-1.7-3.7-1.4-1.8.4-3 2.1-2.7 3.9 0 .1 0 .2.1.4.9 4.2 6.5 5 8.6 7.5.9-3.1 5.6-6.3 4.6-10.5 0-.1 0-.3-.1-.4zM92 30.9c.3-.7.1-1.4-.6-1.8-.5-.3-1.1-.2-1.6.1.1-.5-.2-1.1-.7-1.4-.6-.4-1.4-.2-1.9.4l-.1.1c-.9 1.5.6 3.3.5 4.6 1.1-.7 3.3-.3 4.2-1.8.2-.1.2-.1.2-.2zM83.3 13.9c.7-2-.1-4.2-2.1-5.2-1.5-.8-3.3-.5-4.6.6.1-1.6-.8-3.2-2.3-4-1.9-.9-4.2-.2-5.3 1.5-.1.1-.1.2-.2.4-2.2 4.5 2.3 9.4 2.5 13.2 3.1-2.2 9.7-1.7 11.9-6.2 0-.1.1-.2.1-.3z"></path></svg></g></svg>